# xmcd
#
# Track frame offsets:
#	150
#	8860
#	27073
#	42153
#	55240
#	66543
#	77850
#	85675
#	100785
#	120308
#	133498
#	152385
#	162685
#	172768
#	188180
#	214858
#	231800
#	252828
#	269868
#	286770
#	302063
#	320448
#
# Disc length: 4518 seconds
#
# Revision: 0
# Processed by: cddbd v1.5.2PL0 Copyright (c) Steve Scherf et al.
# Submitted via: EasyCDDAExtractor 16.0.1.1
#
DISCID=2f11a416
DTITLE=Marion Williams - Spirituals
DYEAR=1989
DGENRE=Gospel
TTITLE0=When Was Jesus Born
TTITLE1=Amazing Grace
TTITLE2=I'm Looking To Jesus
TTITLE3=Packin' Up
TTITLE4=He's Got  The Whole World In His Hands
TTITLE5=O Come, All Ye Faithful
TTITLE6=Joy To The World
TTITLE7=(There'll Be) Peace In The Valley
TTITLE8=Somebody Bigger Than You And I
TTITLE9=He'll Understant
TTITLE10=Swing Low, Sweet Chariot
TTITLE11=Michael Row The Boat Ashore
TTITLE12=Great Big God
TTITLE13=Blowin' In The Wind
TTITLE14=Without Love
TTITLE15=Even Me
TTITLE16=The Exodus Song
TTITLE17=Ain't It A Shame
TTITLE18=Without A Song
TTITLE19=What Goas Around
TTITLE20=The Eagle And Me
TTITLE21=The Day Is Past And Gone
EXTD=
EXTT0=
EXTT1=
EXTT2=
EXTT3=
EXTT4=
EXTT5=
EXTT6=
EXTT7=
EXTT8=
EXTT9=
EXTT10=
EXTT11=
EXTT12=
EXTT13=
EXTT14=
EXTT15=
EXTT16=
EXTT17=
EXTT18=
EXTT19=
EXTT20=
EXTT21=
PLAYORDER=
